<svg xmlns="http://www.w3.org/2000/svg" viewBox="0 0 99.2 36.18"><defs><style>.a6504451-27e5-4fa0-a844-79a8789b53a8{fill:#fff;}.a9fc0952-2a17-417d-a015-0a3b98a83160{stroke:#fff;stroke-miterlimit:10;}</style></defs><title>add_cms</title><g id="fb619fb4-5f56-447b-b074-14b39ba14baa" data-name="Layer 2"><g id="bf519d28-6c26-41ea-8768-096c6e5b523d" data-name="Layer 9"><path d="M99.18,34.55v-24s0-.17,0-.2-.16,0-.2,0,0-.13-.09-.19-.13,0-.17-.08,0-.31,0-.4h-.46V9.4H98V9.12H1.23V9.4H1v.23H.48c0,.15,0,.37-.06.45s-.12,0-.17.1,0,.05-.06.13-.06,0-.08,0-.09.05-.09.19v24A1.34,1.34,0,0,0,0,35s.14,0,.17,0,0,.07.06.13.2.05.23.23,0,.26.06.37H1V36h.23v.23H98V36h.29v-.23h.35c.18-.07.08-.23.11-.37s0-.06.09-.14.1,0,.14-.09,0,0,.06-.13.13,0,.17-.07S99.18,34.64,99.18,34.55Z"/><ellipse class="a6504451-27e5-4fa0-a844-79a8789b53a8" cx="81.01" cy="28.17" rx="4.31" ry="4.44"/><ellipse class="a6504451-27e5-4fa0-a844-79a8789b53a8" cx="91.09" cy="28.17" rx="4.31" ry="4.44"/><path class="a9fc0952-2a17-417d-a015-0a3b98a83160" d="M39.18,17V16.5s0-.07,0-.08-.06,0-.07,0,0-.12,0-.16,0,0-.06,0,0-.05,0-.07a.27.27,0,0,0,0-.09S39,16,39,16s0-.11,0-.14,0,0-.06,0,0,0,0-.07,0,0,0,0h0l0,0s0,0,0,0a.08.08,0,0,0,0-.07h0l0,0s0,0,0,0h0s0-.06,0-.08,0,0,0-.05l0,0s0,0,0,0-.05,0-.06,0,0,0,0-.07,0,0-.06-.05,0,0,0,0h-.07s0,0,0,0,0,0-.07,0,0,0,0,0l0,0,0,0s0,0,0,0l-.06,0s0,0,0,0h-.06s0,0,0,0l0,0,0,0s0,0,0,0l-.06,0s0-.05,0-.07H37.9c0-.05,0,0,0-.05s0,0,0-.07h-.13v-.07h-.13c0-.06,0,0,0-.06l0,0s0,0,0-.05h-.11a.1.1,0,0,0,0-.07h-.18v0h-.28v-.07H36.6c0-.05,0-.06-.06-.07h-11V14h-.2v-.07h-.15a.08.08,0,0,0,0-.07s0,0,0,0,0-.05,0-.07,0,0,0-.05a.27.27,0,0,1,0-.09v0s0,0,0,0,0,0,0,0V3.36A1.82,1.82,0,0,0,25,3L25,3s0,0,0,0,0,0,0-.07a.85.85,0,0,0,0-.16s0,0-.08,0V2.61s0-.13,0-.16,0,0-.05-.06,0-.05,0-.07,0,0,0-.08,0,0,0-.05,0,0,0,0,0,0-.05,0,0,0,0-.06,0,0-.06,0,0-.06,0-.07,0,0-.07-.05a.21.21,0,0,0,0-.08l-.07,0s0,0,0-.05h0s0-.05,0-.09-.05,0-.07,0,0,0,0,0l0,0h-.05s0,0,0,0h-.05s0,0,0,0-.05,0-.08,0,0,0,0-.06h0s0,0,0,0l-.06,0s0,0,0,0,0,0,0,0h0s0,0,0,0l0,0s-.05,0,0,0h-.15s0,0,0-.05,0,0,0,0,0,0,0,0V.94h-.15s0,0,0,0,0-.05,0-.07h-.13V.75h-.13V.7h-.21V.62h-.2V.57h-.21V.5H21.17V.57H21V.62h-.2V.7h-.21V.75h-.13V.82h-.14s0,0,0,.07-.05,0,0,0h-.15s0,0,0,.05,0,0,0,0,0,0,0,0,0,0,0,.05h-.15s0,0,0,0l0,.06s-.05,0-.06,0,0,0,0,0h-.05s0,0,0,0,0,0,0,0,0,0,0,.06-.05,0-.07,0,0,0,0,0,0,0,0,0,0,0,0,0h0s0,0,0,.06-.05,0-.06,0,0,.05,0,.08l0,0s0,0,0,0,0,0-.05,0,0,0,0,.07,0,0-.05,0,0,0,0,.08,0,0,0,0,0,0,0,0,0,0,0,.06,0,0-.06.05,0,0,0,.06,0,0,0,0,0,0,0,.06a.27.27,0,0,1,0,.09v0l0,0s0,0,0,.08V2.6s0,.08,0,.09-.06,0-.07,0,0,.14,0,.18a.17.17,0,0,1,0,.07h-.05s0,0,0,0a1.26,1.26,0,0,0,0,.34V13.51c0,.06,0,0-.06.05s0,.12,0,.16-.05,0-.07,0,0,.06,0,.08,0,0-.06,0,0,0,0,.06h-.13V14h-.2v.06h-11s-.07,0-.06.07H6.81v.07H6.53v0H6.35a.1.1,0,0,0,0,.07H6.22s0,0,0,.05l0,0s0,0,0,.06H6v.07H5.87v0l0,0s-.06,0,0,.05H5.66s0,0,0,0,0,0,0,0h0s0,0,0,0,0,0,0,0,0,0,0,0,0,0,0,0h0s0,.05,0,.06H5.39s0,0,0,0,0,0,0,0l0,0s0,0,0,0l-.06,0,0,0s0,0,0,0h0s0,0,0,0l0,0s0,0,0,.07,0,0,0,.06l0,0s0,0,0,0,0,0-.07.05,0,.06,0,.08,0,0,0,0l0,0s0,0,0,0H4.84s0,.07,0,.08,0,0,0,.06,0,0,0,0,0,0,0,.08,0,0,0,0,0,.11,0,.14,0,0-.06,0,0,.05,0,.07,0,.07,0,.08,0,0-.06,0,0,.12,0,.16-.06,0-.07,0a.21.21,0,0,0,0,.08v1.09s0,.07,0,.08,0,0,.06,0,0,.09,0,.14,0,0,0,0a.15.15,0,0,1,0,.07.27.27,0,0,0,0,.09s0,0,.06,0,0,.08,0,.12v.06h0s0,0,0,.07,0,0,0,.05,0,0,0,0,0,.07,0,.09l0,0,0,0s0,0,0,0H5a.21.21,0,0,1,0,.08c0,.06,0,0,0,.06h0s0,0,0,0,.05,0,.06,0,0,.05,0,.07,0,0,.06.05,0,0,0,0h.07s0,0,0,.05,0,0,.07,0,0,0,0,0,0,0,0,0,0,0,0,.06,0,0,.06,0,0,0,0,0,0,0,0,0h0s0,0,0,0,0,0,0,0h0s0,0,0,0l.06,0s0,.05,0,.07h.11c0,.05,0,0,0,.05s0,0,0,.07H6v.07h.13c0,.05,0,0,0,.06l0,0s0,0,0,.05h.11a.1.1,0,0,0,0,.07h.18v0h.28V20h.28c0,.05,0,.05.06.07h11v.05h.2v.08h.13s0,0,0,0,0,0,0,.05,0,.07,0,.08.05,0,.07,0,0,.12,0,.16,0,0,0,.05V30.75a1.82,1.82,0,0,0,0,.33s0,.06,0,.05l.06,0s0,.06,0,.07,0,.12,0,.16.06,0,.07.05,0,.06,0,.08a.86.86,0,0,0,0,.16s.05,0,.06.06v.08s0,0,0,.06,0,0,0,0,0,0,0,0,0,0,.07.07,0,0,0,.06,0,0,0,.06,0,0,0,.06.05,0,.06,0,0,.06,0,.08h0s0,0,0,0l0,0h0s0,.07,0,.09.05,0,.07,0,0,0,0,0l0,0s0,0,0,0l.05,0s0,0,0,0l0,0h.05s0,0,0,0l0,0,0,0,0,0s.05,0,.06,0,0,0,0,0l0,0h0s0,0,0,0l0,0s.05,0,0,.05H20s0,0,0,0,0,0,0,0l0,0v0h.15c0,.05,0,0,0,.06s0,0,0,.07h.14v.05h.13v.07h.21v.07H21v.06h.21v.07h1.35v-.07h.21v-.06h.2v-.07h.21v-.07h.13v-.05h.13s0,0,0-.07.05,0,0-.06h.15s0,0,0,0,0,0,0,0,0,0,0,0,0,0,0,0h.15c0-.05,0,0,0-.05s0,0,0-.07,0,0,.06,0,0,0,0,0l.05,0s0,0,0,0h0s0,0,0-.06.05,0,.07,0,0,0,0,0h0s0,0,0,0l.05,0s0,0,0,0,.05,0,.07-.06,0-.05,0-.07.05,0,.06,0,0,0,0,0,.06,0,.07,0,0-.06,0-.08,0,0,.06,0,0,0,0-.08,0,0,.06,0,0,0,0,0l0,0s0,0,0-.06,0,0,0-.05h0s0,0,0-.08v-.07c0-.06,0,0,.05-.07a.54.54,0,0,0,0-.18s0,0,0-.06.05,0,.06-.05,0-.11,0-.16,0,0,0-.06a.15.15,0,0,0,0-.07,1.93,1.93,0,0,0,0-.34V20.57s0,0,0,0,0,0,0-.06,0-.06,0-.08,0,0,0-.05,0,0,0-.08a.11.11,0,0,1,0-.06s.05,0,0,0h.15v-.08h.2V20h11s.07,0,.06-.07h.28V19.9h.26s0,0,0,0h.18a.1.1,0,0,0,0-.07h.11s0,0,0-.05l0,0s0,0,0-.06h.13v-.07h.13v0s0,0,0,0,.06,0,0-.05H38s0,0,0-.05,0,0,0,0h0s0,0,0,0l0,0,0,0s0,0,0,0h0s0,0,0,0,0,0,0-.05h0s0,0,0,0,0,0,0,0l0,0s0,0,0,0,.06,0,.08,0,0,0,0,0,0,0,0,0,0,0,0,0l0,0a.11.11,0,0,0,0-.08s0,0,0-.06l0,0s0,0,0,0,.05,0,.07,0,0-.06,0-.09,0,0,0,0l0,0s0,0,0,0h0l0,0s0-.06,0-.08,0,0,0-.05,0,0,0-.07,0,0,.06,0,0,0,0-.06v-.07s0,0,0-.06,0,0,0-.05V18s0,0,0-.07h0s0,0,0,0,0-.12,0-.14,0,0,.06,0,0-.06,0-.08Z"/></g></g></svg>